<svg width="16" height="16" viewBox="0 0 16 16" fill="none" xmlns="http://www.w3.org/2000/svg">
<path fill-rule="evenodd" clip-rule="evenodd" d="M4 7.99981C4 7.66843 4.26863 7.39981 4.6 7.39981H9.91034L8.18413 5.8323C7.94527 5.60263 7.93782 5.2228 8.1675 4.98394C8.39718 4.74508 8.777 4.73763 9.01587 4.96731L11.8159 7.56731C11.9335 7.68043 12 7.8366 12 7.99981C12 8.16302 11.9335 8.31918 11.8159 8.43231L9.01587 11.0323C8.777 11.262 8.39718 11.2545 8.1675 11.0157C7.93782 10.7768 7.94527 10.397 8.18413 10.1673L9.91034 8.59981H4.6C4.26863 8.59981 4 8.33118 4 7.99981Z" fill="currentColor"/>
</svg>
