<svg width="32" height="32" viewBox="0 0 32 32" fill="none" xmlns="http://www.w3.org/2000/svg">
<path d="M13.1875 16C13.1875 16.1726 13.0476 16.3125 12.875 16.3125C12.7024 16.3125 12.5625 16.1726 12.5625 16C12.5625 15.8274 12.7024 15.6875 12.875 15.6875C13.0476 15.6875 13.1875 15.8274 13.1875 16ZM13.1875 16H12.875M16.3125 16C16.3125 16.1726 16.1726 16.3125 16 16.3125C15.8274 16.3125 15.6875 16.1726 15.6875 16C15.6875 15.8274 15.8274 15.6875 16 15.6875C16.1726 15.6875 16.3125 15.8274 16.3125 16ZM16.3125 16H16M19.4375 16C19.4375 16.1726 19.2976 16.3125 19.125 16.3125C18.9524 16.3125 18.8125 16.1726 18.8125 16C18.8125 15.8274 18.9524 15.6875 19.125 15.6875C19.2976 15.6875 19.4375 15.8274 19.4375 16ZM19.4375 16H19.125M23.5 16C23.5 19.797 20.1421 22.875 16 22.875C15.2604 22.875 14.5459 22.7769 13.871 22.5941C13.0585 23.1649 12.0683 23.5 11 23.5C10.834 23.5 10.6698 23.4919 10.5081 23.4761C10.375 23.4631 10.2432 23.4449 10.1132 23.4216C10.5161 22.9461 10.8023 22.3689 10.9282 21.734C11.0038 21.3531 10.8173 20.9832 10.539 20.7124C9.27475 19.4818 8.5 17.8238 8.5 16C8.5 12.203 11.8579 9.125 16 9.125C20.1421 9.125 23.5 12.203 23.5 16Z" stroke="currentColor" stroke-width="1.5" stroke-linecap="round" stroke-linejoin="round"/>
</svg>
