<svg width="32" height="32" viewBox="0 0 32 32" fill="none" xmlns="http://www.w3.org/2000/svg">
<path d="M23.5 15.375V22.25C23.5 22.9404 22.9404 23.5 22.25 23.5H10.375C9.68464 23.5 9.125 22.9404 9.125 22.25V15.375M16 10.0625C16 8.85438 15.0206 7.875 13.8125 7.875C12.6044 7.875 11.625 8.85438 11.625 10.0625C11.625 11.2706 12.6044 12.25 13.8125 12.25C14.4246 12.25 16 12.25 16 12.25M16 10.0625C16 10.6585 16 12.25 16 12.25M16 10.0625C16 8.85438 16.9794 7.875 18.1875 7.875C19.3956 7.875 20.375 8.85438 20.375 10.0625C20.375 11.2706 19.3956 12.25 18.1875 12.25C17.5754 12.25 16 12.25 16 12.25M16 12.25V23.5M8.8125 15.375H23.8125C24.3303 15.375 24.75 14.9553 24.75 14.4375V13.1875C24.75 12.6697 24.3303 12.25 23.8125 12.25H8.8125C8.29473 12.25 7.875 12.6697 7.875 13.1875V14.4375C7.875 14.9553 8.29473 15.375 8.8125 15.375Z" stroke="currentColor" stroke-width="1.5" stroke-linecap="round" stroke-linejoin="round"/>
</svg>
