<svg width="20" height="20" viewBox="0 0 20 20" fill="none" xmlns="http://www.w3.org/2000/svg">
<path d="M6.25 6.875H13.75M6.25 9.375H10M1.875 10.6328C1.875 11.967 2.81118 13.1284 4.13122 13.3225C5.07164 13.4607 6.0227 13.5663 6.98321 13.6379C7.27504 13.6597 7.54181 13.8127 7.70413 14.0562L10 17.5L12.2958 14.0563C12.4582 13.8128 12.7249 13.6597 13.0168 13.638C13.9773 13.5664 14.9283 13.4608 15.8687 13.3226C17.1888 13.1285 18.125 11.9671 18.125 10.6329V5.61713C18.125 4.28288 17.1888 3.12152 15.8687 2.92745C13.9534 2.64584 11.9938 2.5 10.0002 2.5C8.00647 2.5 6.04676 2.64587 4.13122 2.92752C2.81118 3.12161 1.875 4.28297 1.875 5.6172V10.6328Z" stroke="currentColor" stroke-width="1.5" stroke-linecap="round" stroke-linejoin="round"/>
</svg>
