<svg width="20" height="20" viewBox="0 0 20 20" fill="none" xmlns="http://www.w3.org/2000/svg">
<path d="M8.61846 3.28338C8.6938 2.83132 9.08492 2.5 9.54321 2.5H10.4548C10.9131 2.5 11.3042 2.83132 11.3796 3.28338L11.5037 4.02822C11.5627 4.38178 11.8234 4.66532 12.1545 4.80276C12.4856 4.94027 12.8659 4.9219 13.1577 4.71348L13.7724 4.27445C14.1453 4.00807 14.6561 4.05035 14.9802 4.37441L15.6248 5.01903C15.9489 5.34309 15.9912 5.85393 15.7248 6.22686L15.2856 6.84172C15.0772 7.13343 15.0589 7.51361 15.1963 7.84469C15.3337 8.17565 15.6172 8.43636 15.9707 8.49527L16.7156 8.61944C17.1677 8.69478 17.499 9.0859 17.499 9.54418V10.4558C17.499 10.9141 17.1677 11.3052 16.7156 11.3806L15.9708 11.5047C15.6172 11.5636 15.3337 11.8244 15.1963 12.1554C15.0588 12.4866 15.0771 12.8669 15.2856 13.1587L15.7245 13.7732C15.9909 14.1461 15.9486 14.657 15.6245 14.981L14.9799 15.6256C14.6559 15.9497 14.145 15.992 13.7721 15.7256L13.1574 15.2866C12.8657 15.0782 12.4855 15.0598 12.1544 15.1973C11.8234 15.3347 11.5627 15.6182 11.5037 15.9717L11.3796 16.7166C11.3042 17.1687 10.9131 17.5 10.4548 17.5H9.54321C9.08492 17.5 8.6938 17.1687 8.61846 16.7166L8.49432 15.9718C8.43539 15.6182 8.17463 15.3347 7.8436 15.1972C7.51243 15.0597 7.13215 15.0781 6.84036 15.2865L6.22567 15.7256C5.85275 15.992 5.34191 15.9497 5.01785 15.6256L4.37322 14.981C4.04917 14.6569 4.00689 14.1461 4.27326 13.7732L4.71246 13.1583C4.92082 12.8666 4.9392 12.4864 4.80174 12.1553C4.66433 11.8244 4.38085 11.5636 4.02737 11.5047L3.2824 11.3806C2.83035 11.3052 2.49902 10.9141 2.49902 10.4558V9.54418C2.49902 9.0859 2.83035 8.69478 3.2824 8.61944L4.02724 8.4953C4.3808 8.43637 4.66434 8.1756 4.80179 7.84456C4.9393 7.51337 4.92093 7.13308 4.7125 6.84128L4.27359 6.2268C4.00722 5.85388 4.04949 5.34304 4.37355 5.01898L5.01818 4.37435C5.34223 4.0503 5.85308 4.00802 6.226 4.27439L6.84067 4.71344C7.13239 4.92181 7.51259 4.94018 7.84369 4.80272C8.17467 4.66531 8.43539 4.38182 8.4943 4.02833L8.61846 3.28338Z" stroke="currentColor" stroke-width="1.5" stroke-linecap="round" stroke-linejoin="round"/>
<path d="M12.4996 10C12.4996 11.3807 11.3803 12.5 9.99961 12.5C8.61889 12.5 7.49961 11.3807 7.49961 10C7.49961 8.61931 8.61889 7.50002 9.99961 7.50002C11.3803 7.50002 12.4996 8.61931 12.4996 10Z" stroke="currentColor" stroke-width="1.5" stroke-linecap="round" stroke-linejoin="round"/>
</svg>
