<svg width="12" height="12" viewBox="0 0 12 12" fill="none" xmlns="http://www.w3.org/2000/svg">
<g clip-path="url(#clip0_2976_526)">
<path d="M8.81676 0.754883H3.18323C3.05231 0.754883 2.93132 0.824727 2.86586 0.938117L0.0490957 5.81689C-0.0163652 5.93028 -0.0163652 6.06997 0.0490957 6.18336L2.86586 11.0622C2.93132 11.1755 3.05231 11.2454 3.18323 11.2454H8.81676C8.94768 11.2454 9.06867 11.1755 9.13413 11.0622L11.9509 6.18336C12.0164 6.06997 12.0164 5.93028 11.9509 5.81689L9.13413 0.938117C9.06867 0.824727 8.94768 0.754883 8.81676 0.754883Z" fill="#FFD45D"/>
<path d="M11.9998 6H9.59791L7.79883 9.11609L8.99977 11.1961C9.05456 11.1645 9.10118 11.1187 9.1339 11.062L11.9507 6.18321C11.9834 6.12654 11.9998 6.06326 11.9998 6Z" fill="#FF6500"/>
<path d="M7.79906 9.11621H4.20094L3 11.1963C3.0548 11.2279 3.11777 11.2454 3.18323 11.2454H8.81677C8.88223 11.2454 8.9452 11.2279 9 11.1963L7.79906 9.11621Z" fill="#FF9416"/>
<path d="M4.20094 9.11609L2.40185 6H0C0 6.06326 0.0163594 6.12654 0.0491016 6.18323L2.86587 11.062C2.89861 11.1187 2.9452 11.1645 3 11.1962L4.20094 9.11609Z" fill="#FFC13F"/>
<path d="M4.20094 2.88379L3 0.803711C2.9452 0.835352 2.89859 0.881148 2.86587 0.937844L0.0491016 5.81666C0.0163594 5.87334 0 5.93662 0 5.99988H2.40185L4.20094 2.88379Z" fill="#FFD45D"/>
<path d="M4.20094 2.88406H7.79906L9 0.803984C8.9452 0.772344 8.88223 0.754883 8.81677 0.754883H3.18323C3.11777 0.754883 3.0548 0.772344 3 0.803984L4.20094 2.88406Z" fill="#FFC13F"/>
<path d="M7.79883 2.88379L9.59791 5.99988H11.9998C11.9998 5.93662 11.9834 5.87334 11.9507 5.81666L9.1339 0.937844C9.10118 0.881148 9.05456 0.835352 8.99977 0.803711L7.79883 2.88379Z" fill="#FF9416"/>
<path d="M7.7986 2.88379H4.20043L2.40137 5.99988L4.20043 9.11596H7.7986L9.59766 5.99988L7.7986 2.88379Z" fill="#FF7B05"/>
</g>
<defs>
<clipPath id="clip0_2976_526">
<rect width="12" height="12" fill="white"/>
</clipPath>
</defs>
</svg>
