<svg width="59" height="12" viewBox="0 0 59 12" fill="none" xmlns="http://www.w3.org/2000/svg">
<path d="M5.2067 4.78392L7.72478 0.678711H10.008L6.83379 5.66325L10.1396 10.6478H7.85634L5.2067 6.54258L2.57037 10.6478H0.287109L3.59293 5.66325L0.418677 0.678711H2.70194L5.2067 4.78392Z" fill="#9B9B9B"/>
<path d="M18.9276 9.69186C18.8044 9.81344 18.6778 9.92335 18.5462 10.0199L19.8719 11.4489H17.3521L17.0374 11.0525L16.7892 10.7411C16.6044 10.7677 16.4162 10.781 16.2246 10.781H14.8873C14.7624 10.781 14.6409 10.776 14.5226 10.766C13.595 10.6894 12.7923 10.3081 12.1194 9.62691C11.3933 8.89247 11.0303 8.01314 11.0303 6.99059V4.33927C11.0303 3.27175 11.415 2.36911 12.1844 1.62468C12.9455 0.906889 13.8448 0.548828 14.8873 0.548828H15.3969C14.824 0.988493 14.5226 1.5947 14.5226 2.30582V2.31582C14.0846 2.40408 13.7199 2.65722 13.4301 3.08023C13.1686 3.45661 13.0371 3.87629 13.0371 4.33927V6.98892C13.0371 7.67174 13.2819 8.21799 13.7715 8.62767C14.008 8.82086 14.2578 8.94743 14.5226 9.00739C14.6409 9.03403 14.7624 9.04735 14.8873 9.04735H16.2246C16.5411 9.04735 16.8275 8.97241 17.0773 8.82253C17.2755 8.70428 17.4537 8.54107 17.6119 8.32957C17.6352 8.29793 17.6586 8.26628 17.6802 8.23297C17.9333 7.85659 18.0599 7.44191 18.0599 6.98726V4.33927C18.0599 3.80468 17.91 3.35336 17.6119 2.98697C17.5253 2.88039 17.4254 2.78046 17.3138 2.6872C17.2372 2.62391 17.1589 2.56729 17.0773 2.51899C16.8159 2.36078 16.5311 2.28084 16.2246 2.28084H15.0572C15.0639 1.70795 15.317 1.2483 15.8183 0.903558C16.0764 0.72536 16.3545 0.615444 16.656 0.570478C17.5553 0.66041 18.3347 1.03846 18.9925 1.70295C19.1741 1.88614 19.3323 2.07933 19.4672 2.28084C19.5838 2.45238 19.682 2.63058 19.7653 2.81543C19.9751 3.28175 20.08 3.78969 20.08 4.34094V6.99059C20.0834 8.04645 19.697 8.94743 18.9276 9.69186Z" fill="#9B9B9B"/>
<path d="M21.6179 0.678711H23.638V6.85734C23.638 7.54848 23.8878 8.09972 24.3858 8.50941C24.7089 8.78087 25.0719 8.91577 25.4749 8.91577H26.5508C27.1537 8.91577 27.64 8.64931 28.0063 8.11638C28.2695 7.74 28.3994 7.32032 28.3994 6.85734V0.678711H30.4062V6.85734C30.4062 7.92486 30.0215 8.82917 29.2521 9.57194C28.491 10.2897 27.59 10.6478 26.5491 10.6478H25.4733C24.3891 10.6478 23.4665 10.2631 22.7054 9.49366C21.9793 8.75922 21.6162 7.87989 21.6162 6.85734V0.678711H21.6179Z" fill="#9B9B9B"/>
<path d="M40.1921 0.678711H32.085V2.41072H39.2478L40.1921 0.678711Z" fill="#9B9B9B"/>
<path d="M38.0771 4.85059H32.085V6.5826H38.0771V4.85059Z" fill="#9B9B9B"/>
<path d="M32.085 10.6473H40.1921L39.2478 8.91699H32.085V10.6473Z" fill="#9B9B9B"/>
<path d="M41.3213 3.52488C41.3213 2.72049 41.6977 2.03768 42.4488 1.4781C43.1749 0.945174 44.0409 0.678711 45.0468 0.678711H46.3841C47.1968 0.678711 47.9846 0.866901 48.7457 1.24328C49.0604 1.40982 49.3136 1.58469 49.5067 1.76788L47.7497 3.11852C47.4616 2.71716 47.0669 2.484 46.569 2.42405C46.5074 2.41572 46.4457 2.41072 46.3858 2.41072H45.0485C44.3923 2.41072 43.8977 2.59392 43.5663 2.96197C43.418 3.14517 43.3431 3.33336 43.3431 3.52654C43.3431 3.86795 43.7062 4.16106 44.4323 4.40587C44.6604 4.48415 45.0435 4.59406 45.5864 4.73396C46.8987 5.07536 47.8164 5.40678 48.341 5.73153C49.1986 6.25613 49.6316 6.94727 49.64 7.80495C49.64 8.60101 49.2553 9.27883 48.4858 9.8384C47.7248 10.3813 46.8238 10.6511 45.7829 10.6511H44.4456C43.5979 10.6511 42.7752 10.4629 41.9791 10.0865C41.6461 9.92 41.3846 9.74514 41.1914 9.56194L42.9234 8.22463C43.2299 8.60934 43.6579 8.8375 44.2091 8.90744C44.2957 8.91577 44.3756 8.92077 44.4456 8.92077H45.7829C46.4907 8.92077 47.0253 8.73258 47.3834 8.3562C47.5416 8.18133 47.6198 7.99813 47.6198 7.80495C47.6198 7.42024 47.2568 7.10049 46.5307 6.84734C46.4258 6.80404 45.7912 6.62418 44.6288 6.30942C43.2915 5.95136 42.3805 5.51836 41.9009 5.01041C41.5128 4.5874 41.3213 4.09444 41.3213 3.52488Z" fill="#9B9B9B"/>
<path d="M53.5398 0.678711L52.4639 2.41072H50.7119V0.678711H53.5398ZM55.4083 10.6478H53.3882V2.43737C53.3882 1.85115 53.6413 1.38317 54.1493 1.03344C54.4907 0.796954 54.8704 0.678711 55.2901 0.678711H58.2678V2.41072H55.4083V10.6478Z" fill="#9B9B9B"/>
</svg>
