<svg width="24" height="24" viewBox="0 0 24 24" fill="none" xmlns="http://www.w3.org/2000/svg">
<path d="M15.1692 6.37413C15.5606 5.67133 14.7945 5.69298 13.6753 6.01607C13.1341 6.106 12.6994 6.26754 12.348 6.46906C10.7759 7.07193 9.11548 7.89797 8.9073 8.13612C8.9073 8.13612 7.48672 8.30099 6.76893 10.1229C6.26931 11.3903 7.76151 12.606 11.6802 9.46011C13.667 7.96958 16.0952 7.03196 19.3194 10.9473C18.2585 9.33854 16.6731 7.22515 15.1692 6.37413Z" fill="#7835BA"/>
<mask id="mask0_2976_3039" style="mask-type:luminance" maskUnits="userSpaceOnUse" x="6" y="5" width="14" height="7">
<path d="M15.1692 6.37413C15.5606 5.67133 14.7945 5.69298 13.6753 6.01607C13.1341 6.106 12.6994 6.26754 12.348 6.46906C10.7759 7.07193 9.11548 7.89797 8.9073 8.13612C8.9073 8.13612 7.48672 8.30099 6.76893 10.1229C6.26931 11.3903 7.76151 12.606 11.6802 9.46011C13.667 7.96958 16.0952 7.03196 19.3194 10.9473C18.2585 9.33854 16.6731 7.22515 15.1692 6.37413Z" fill="white"/>
</mask>
<g mask="url(#mask0_2976_3039)">
<path opacity="0.39" d="M6.93359 9.79309C6.93359 9.79309 9.03033 7.58644 12.4527 7.6414C15.8735 7.69636 15.8735 10.0696 16.4264 10.9522C16.9776 11.8349 19.7921 11.8349 19.7921 11.8349L21.779 9.73814L20.0669 7.20007L16.2049 5.10333L12.4527 4.88184L8.75554 6.26079L6.93526 8.02611V9.79309H6.93359Z" fill="url(#paint0_linear_2976_3039)"/>
</g>
<path d="M19.3193 10.9502C20.0754 12.0993 20.5634 12.9936 20.5634 12.9936C20.1704 12.1743 19.7523 11.5014 19.3193 10.9502Z" fill="url(#paint1_linear_2976_3039)"/>
<path d="M9.74827 19.8921C9.74827 19.8921 8.36932 19.0644 8.12117 18.8162C7.80641 18.5015 6.37251 16.9826 7.40339 14.8975C8.75569 12.1663 13.4188 12.6343 15.2391 14.8975C17.0594 17.1608 17.9437 17.3257 19.8739 15.7802C21.8058 14.2347 20.0354 23.6442 9.74827 19.8921Z" fill="#7835BA"/>
<mask id="mask1_2976_3039" style="mask-type:luminance" maskUnits="userSpaceOnUse" x="7" y="13" width="14" height="8">
<path d="M9.74827 19.8921C9.74827 19.8921 8.36932 19.0644 8.12117 18.8162C7.80641 18.5015 6.37251 16.9826 7.40339 14.8975C8.75569 12.1663 13.4188 12.6343 15.2391 14.8975C17.0594 17.1608 17.9437 17.3257 19.8739 15.7802C21.8058 14.2347 20.0354 23.6442 9.74827 19.8921Z" fill="white"/>
</mask>
<g mask="url(#mask1_2976_3039)">
<path opacity="0.72" d="M7.76172 18.8981C7.76172 18.8981 15.8189 20.1672 15.8189 13.877L24.2625 14.7596L25.4216 18.7333L20.7318 23.2032L10.413 22.9817L8.58942 19.7258L7.76172 18.8981Z" fill="url(#paint2_linear_2976_3039)"/>
</g>
<mask id="mask2_2976_3039" style="mask-type:luminance" maskUnits="userSpaceOnUse" x="7" y="13" width="14" height="8">
<path d="M9.74827 19.8921C9.74827 19.8921 8.36932 19.0644 8.12117 18.8162C7.80641 18.5015 6.37251 16.9826 7.40339 14.8975C8.75569 12.1663 13.4188 12.6343 15.2391 14.8975C17.0594 17.1608 17.9437 17.3257 19.8739 15.7802C21.8058 14.2347 20.0354 23.6442 9.74827 19.8921Z" fill="white"/>
</mask>
<g mask="url(#mask2_2976_3039)">
<path opacity="0.14" d="M7.70688 18.4018C7.70688 18.4018 10.0251 20.2787 13.3359 19.7258C16.6467 19.1745 16.7017 16.0835 16.4819 15.5323C16.2604 14.981 21.558 15.091 21.558 15.091L22.882 17.0778L20.8402 21.0514L16.4802 23.2031L10.2999 22.7618L8.53459 20.0022L7.41211 17.8589" fill="url(#paint3_linear_2976_3039)"/>
</g>
<path d="M14.2469 5.24023C10.9145 5.24023 8.04833 7.23538 6.7793 10.0982C7.98005 8.36619 10.0118 7.22705 12.3167 7.22705C16.0039 7.22705 18.9933 10.1432 18.9933 13.7388C18.9933 17.3344 16.0039 20.2505 12.3167 20.2505C10.723 20.2505 9.26074 19.7059 8.11162 18.7966C9.60881 20.4986 11.8021 21.5745 14.2469 21.5745C18.7568 21.5745 22.4141 17.9172 22.4141 13.4073C22.4141 8.89745 18.7568 5.24023 14.2469 5.24023Z" fill="#7935BA"/>
<mask id="mask3_2976_3039" style="mask-type:luminance" maskUnits="userSpaceOnUse" x="6" y="5" width="17" height="17">
<path d="M14.2469 5.24023C10.9145 5.24023 8.04833 7.23538 6.7793 10.0982C7.98005 8.36619 10.0118 7.22705 12.3167 7.22705C16.0039 7.22705 18.9933 10.1432 18.9933 13.7388C18.9933 17.3344 16.0039 20.2505 12.3167 20.2505C10.723 20.2505 9.26074 19.7059 8.11162 18.7966C9.60881 20.4986 11.8021 21.5745 14.2469 21.5745C18.7568 21.5745 22.4141 17.9172 22.4141 13.4073C22.4141 8.89745 18.7568 5.24023 14.2469 5.24023Z" fill="white"/>
</mask>
<g mask="url(#mask3_2976_3039)">
<path opacity="0.44" d="M12.2871 20.2243C16.645 20.2243 20.1778 16.9137 20.1778 12.8299C20.1778 8.74612 16.645 5.43555 12.2871 5.43555C7.92925 5.43555 4.39648 8.74612 4.39648 12.8299C4.39648 16.9137 7.92925 20.2243 12.2871 20.2243Z" fill="url(#paint4_linear_2976_3039)"/>
</g>
<path d="M3.51482 20.4852C6.97719 23.9476 12.0283 24.8519 16.3217 23.1982C13.2757 23.7511 9.98156 22.8234 7.58672 20.4286C3.75464 16.5965 3.67803 10.4612 7.41518 6.72571C11.1523 2.99022 17.2877 3.06683 21.1181 6.89725C22.7735 8.55265 23.7278 10.6394 23.9759 12.7761C24.1907 9.45197 23.0266 6.05455 20.4869 3.51482C15.8005 -1.17161 8.20125 -1.17161 3.51482 3.51482C-1.17161 8.19959 -1.17161 15.7971 3.51482 20.4852Z" fill="url(#paint5_linear_2976_3039)"/>
<mask id="mask4_2976_3039" style="mask-type:luminance" maskUnits="userSpaceOnUse" x="0" y="0" width="25" height="24">
<path d="M3.51482 20.4852C6.97719 23.9476 12.0283 24.8519 16.3217 23.1982C13.2757 23.7511 9.98156 22.8234 7.58672 20.4286C3.75464 16.5965 3.67803 10.4612 7.41518 6.72571C11.1523 2.99022 17.2877 3.06683 21.1181 6.89725C22.7735 8.55265 23.7278 10.6394 23.9759 12.7761C24.1907 9.45197 23.0266 6.05455 20.4869 3.51482C15.8005 -1.17161 8.20125 -1.17161 3.51482 3.51482C-1.17161 8.19959 -1.17161 15.7971 3.51482 20.4852Z" fill="white"/>
</mask>
<g mask="url(#mask4_2976_3039)">
<path opacity="0.44" d="M5.23545 6.4376C9.47888 2.19416 16.5901 2.42565 21.1184 6.95387C25.6466 11.4821 25.8781 18.5933 21.6346 22.8368C17.3912 27.0802 10.2799 26.8487 5.75172 22.3205C1.2235 17.7906 0.992015 10.681 5.23545 6.4376Z" fill="url(#paint6_linear_2976_3039)"/>
</g>
<defs>
<linearGradient id="paint0_linear_2976_3039" x1="14.2086" y1="6.21414" x2="14.5652" y2="14.7891" gradientUnits="userSpaceOnUse">
<stop offset="0.00317383" stop-color="#234796" stop-opacity="0"/>
<stop offset="0.9968" stop-color="#263F6B"/>
</linearGradient>
<linearGradient id="paint1_linear_2976_3039" x1="19.913" y1="11.2696" x2="19.9928" y2="13.1882" gradientUnits="userSpaceOnUse">
<stop stop-color="#0172A6"/>
<stop offset="0.6756" stop-color="#47C5DC"/>
<stop offset="0.9992" stop-color="#65E8F3"/>
</linearGradient>
<linearGradient id="paint2_linear_2976_3039" x1="15.917" y1="16.6552" x2="19.2075" y2="22.6736" gradientUnits="userSpaceOnUse">
<stop offset="0.00317383" stop-color="#234796" stop-opacity="0"/>
<stop offset="0.9968" stop-color="#263F6B"/>
</linearGradient>
<linearGradient id="paint3_linear_2976_3039" x1="15.2252" y1="16.7523" x2="14.4713" y2="23.7265" gradientUnits="userSpaceOnUse">
<stop offset="0.00317383" stop-color="#234796" stop-opacity="0"/>
<stop offset="0.9968" stop-color="#263F6B"/>
</linearGradient>
<linearGradient id="paint4_linear_2976_3039" x1="13.0807" y1="21.3658" x2="11.6213" y2="5.65112" gradientUnits="userSpaceOnUse">
<stop offset="0.00317383" stop-color="#FCC100" stop-opacity="0"/>
<stop offset="0.6695" stop-color="#FD714B" stop-opacity="0.6684"/>
<stop offset="1" stop-color="#FD4E6B"/>
</linearGradient>
<linearGradient id="paint5_linear_2976_3039" x1="19.7005" y1="3.57254" x2="3.12732" y2="20.1458" gradientUnits="userSpaceOnUse">
<stop stop-color="#832BC1"/>
<stop offset="1" stop-color="#002AA7"/>
</linearGradient>
<linearGradient id="paint6_linear_2976_3039" x1="21.4807" y1="4.94242" x2="6.66883" y2="22.7871" gradientUnits="userSpaceOnUse">
<stop offset="0.00317383" stop-color="#FCC100" stop-opacity="0"/>
<stop offset="0.6695" stop-color="#FD714B" stop-opacity="0.6684"/>
<stop offset="1" stop-color="#FD4E6B"/>
</linearGradient>
</defs>
</svg>
